<svg width="42" height="42" viewBox="0 0 42 42" fill="none" xmlns="http://www.w3.org/2000/svg">
<ellipse cx="20.7885" cy="20.7964" rx="20.4017" ry="20.2451" fill="black"/>
<path d="M14.875 22.25C12.4662 22.25 10.5 24.2162 10.5 26.625C10.5 29.0338 12.4662 31 14.875 31C17.0715 31 18.8984 29.3646 19.2036 27.25H21.7964C22.1016 29.3646 23.9285 31 26.125 31C28.5338 31 30.5 29.0338 30.5 26.625C30.5 24.2162 28.5338 22.25 26.125 22.25C23.9285 22.25 22.1016 23.8854 21.7964 26H19.2036C18.8984 23.8854 17.0715 22.25 14.875 22.25Z" fill="white"/>
<path d="M15.1802 11.0002C13.9285 10.9855 12.7558 11.8177 12.4165 13.0925L10.6465 19.7502H8.625C8.27982 19.7502 8 20.03 8 20.3752C8 20.7204 8.27982 21.0002 8.625 21.0002C16.5417 21.0002 24.4583 21.0002 32.375 21.0002C32.7202 21.0002 33 20.7204 33 20.3752C33 20.03 32.7202 19.7502 32.375 19.7502H30.3535L28.5835 13.0925C28.1659 11.5236 26.4872 10.6268 24.9507 11.1516L20.7026 12.6018C20.5714 12.6466 20.4286 12.6466 20.2974 12.6018L16.0493 11.1516C15.7612 11.0532 15.469 11.0036 15.1802 11.0002Z" fill="white"/>
</svg>
