<svg width="69" height="69" viewBox="0 0 69 69" fill="none" xmlns="http://www.w3.org/2000/svg">
<path d="M69 34.5C69 53.5538 53.5538 69 34.5 69C15.4462 69 0 53.5538 0 34.5C0 15.4462 15.4462 0 34.5 0C53.5538 0 69 15.4462 69 34.5Z" fill="#80BDFF"/>
<path d="M24.7735 35.4211H34.4903V44.6316M17.0194 35.4211H17M26.7363 44.6316H26.7168M34.5097 52H34.4903M52 35.4211H51.9806M17 44.6316H19.915M41.2921 35.4211H45.1788M17 52H26.7168M34.4903 17V28.0526M45.3731 52H48.8712C49.9597 52 50.5038 52 50.9195 51.7992C51.2852 51.6226 51.5824 51.3409 51.7687 50.9942C51.9806 50.6002 51.9806 50.0844 51.9806 49.0526V45.7368C51.9806 44.7051 51.9806 44.1893 51.7687 43.7953C51.5824 43.4486 51.2852 43.1669 50.9195 42.9903C50.5038 42.7895 49.9597 42.7895 48.8712 42.7895H45.3731C44.2846 42.7895 43.7405 42.7895 43.3248 42.9903C42.9591 43.1669 42.6619 43.4486 42.4756 43.7953C42.2637 44.1893 42.2637 44.7051 42.2637 45.7368V49.0526C42.2637 50.0844 42.2637 50.6002 42.4756 50.9942C42.6619 51.3409 42.9591 51.6226 43.3248 51.7992C43.7405 52 44.2846 52 45.3731 52ZM45.3731 28.0526H48.8712C49.9597 28.0526 50.5038 28.0526 50.9195 27.8519C51.2852 27.6752 51.5824 27.3934 51.7687 27.0468C51.9806 26.6528 51.9806 26.1369 51.9806 25.1053V21.7895C51.9806 20.7578 51.9806 20.242 51.7687 19.8479C51.5824 19.5013 51.2852 19.2195 50.9195 19.0429C50.5038 18.8421 49.9597 18.8421 48.8712 18.8421H45.3731C44.2846 18.8421 43.7405 18.8421 43.3248 19.0429C42.9591 19.2195 42.6619 19.5013 42.4756 19.8479C42.2637 20.242 42.2637 20.7578 42.2637 21.7895V25.1053C42.2637 26.1369 42.2637 26.6528 42.4756 27.0468C42.6619 27.3934 42.9591 27.6752 43.3248 27.8519C43.7405 28.0526 44.2846 28.0526 45.3731 28.0526ZM20.1094 28.0526H23.6074C24.6958 28.0526 25.24 28.0526 25.6557 27.8519C26.0214 27.6752 26.3187 27.3934 26.505 27.0468C26.7168 26.6528 26.7168 26.1369 26.7168 25.1053V21.7895C26.7168 20.7578 26.7168 20.242 26.505 19.8479C26.3187 19.5013 26.0214 19.2195 25.6557 19.0429C25.24 18.8421 24.6958 18.8421 23.6074 18.8421H20.1094C19.021 18.8421 18.4768 18.8421 18.0611 19.0429C17.6954 19.2195 17.3981 19.5013 17.2118 19.8479C17 20.242 17 20.7578 17 21.7895V25.1053C17 26.1369 17 26.6528 17.2118 27.0468C17.3981 27.3934 17.6954 27.6752 18.0611 27.8519C18.4768 28.0526 19.021 28.0526 20.1094 28.0526Z" stroke="white" stroke-width="2" stroke-linecap="round" stroke-linejoin="round"/>
</svg>
