<svg width="115" height="151" viewBox="0 0 115 151" fill="none" xmlns="http://www.w3.org/2000/svg">
<g filter="url(#filter0_d_2914_10283)">
<circle cx="57.5" cy="53.5" r="53.5" fill="#F0EFEF"/>
<path d="M57.5317 58.5408C60.8502 58.5408 63.5403 55.8507 63.5403 52.5323C63.5403 49.2138 60.8502 46.5237 57.5317 46.5237C54.2133 46.5237 51.5232 49.2138 51.5232 52.5323C51.5232 55.8507 54.2133 58.5408 57.5317 58.5408Z" fill="#3A3541" fill-opacity="0.54"/>
<path d="M51.8986 33.7559L48.4625 37.5112H42.5102C40.4448 37.5112 38.7549 39.2011 38.7549 41.2666V63.7987C38.7549 65.8641 40.4448 67.554 42.5102 67.554H72.5531C74.6185 67.554 76.3084 65.8641 76.3084 63.7987V41.2666C76.3084 39.2011 74.6185 37.5112 72.5531 37.5112H66.6008L63.1647 33.7559H51.8986ZM57.5316 61.921C52.3493 61.921 48.1433 57.715 48.1433 52.5326C48.1433 47.3502 52.3493 43.1442 57.5316 43.1442C62.714 43.1442 66.92 47.3502 66.92 52.5326C66.92 57.715 62.714 61.921 57.5316 61.921Z" fill="#3A3541" fill-opacity="0.54"/>
<path d="M8.64 133.4C8.64 134.189 8.816 134.883 9.168 135.48C9.53067 136.077 10 136.541 10.576 136.872C11.1627 137.192 11.7973 137.352 12.48 137.352C13.0133 137.352 13.4933 137.283 13.92 137.144C14.3467 137.005 14.7307 136.819 15.072 136.584C15.424 136.339 15.728 136.067 15.984 135.768V138.008C15.5147 138.392 15.008 138.685 14.464 138.888C13.92 139.091 13.2373 139.192 12.416 139.192C11.5947 139.192 10.8267 139.053 10.112 138.776C9.408 138.499 8.79467 138.099 8.272 137.576C7.74933 137.053 7.33867 136.44 7.04 135.736C6.752 135.021 6.608 134.243 6.608 133.4C6.608 132.557 6.752 131.784 7.04 131.08C7.33867 130.365 7.74933 129.747 8.272 129.224C8.79467 128.701 9.408 128.301 10.112 128.024C10.8267 127.747 11.5947 127.608 12.416 127.608C13.2373 127.608 13.92 127.709 14.464 127.912C15.008 128.115 15.5147 128.408 15.984 128.792V131.032C15.728 130.733 15.424 130.467 15.072 130.232C14.7307 129.987 14.3467 129.795 13.92 129.656C13.4933 129.517 13.0133 129.448 12.48 129.448C11.7973 129.448 11.1627 129.613 10.576 129.944C10 130.264 9.53067 130.723 9.168 131.32C8.816 131.907 8.64 132.6 8.64 133.4ZM19.8945 126.52V139H18.1665V126.52H19.8945ZM22.9025 134.52C22.9025 133.976 22.7905 133.565 22.5665 133.288C22.3532 133.011 22.0065 132.872 21.5265 132.872C21.2065 132.872 20.9238 132.941 20.6785 133.08C20.4332 133.219 20.2412 133.411 20.1025 133.656C19.9638 133.901 19.8945 134.189 19.8945 134.52H19.4785C19.4785 133.933 19.5852 133.411 19.7985 132.952C20.0118 132.493 20.3105 132.125 20.6945 131.848C21.0892 131.571 21.5638 131.432 22.1185 131.432C22.6625 131.432 23.1212 131.539 23.4945 131.752C23.8785 131.965 24.1665 132.285 24.3585 132.712C24.5505 133.128 24.6465 133.651 24.6465 134.28V139H22.9025V134.52ZM27.9264 136.712C27.9264 136.957 27.985 137.171 28.1024 137.352C28.2197 137.523 28.3797 137.651 28.5824 137.736C28.7957 137.821 29.0357 137.864 29.3024 137.864C29.6437 137.864 29.953 137.795 30.2304 137.656C30.5184 137.517 30.7477 137.315 30.9184 137.048C31.0997 136.771 31.1904 136.451 31.1904 136.088L31.4464 137.048C31.4464 137.517 31.3077 137.912 31.0304 138.232C30.7637 138.541 30.4224 138.776 30.0064 138.936C29.601 139.085 29.185 139.16 28.7584 139.16C28.2997 139.16 27.873 139.069 27.4784 138.888C27.0837 138.707 26.769 138.44 26.5344 138.088C26.2997 137.736 26.1824 137.309 26.1824 136.808C26.1824 136.093 26.433 135.528 26.9344 135.112C27.4357 134.685 28.145 134.472 29.0624 134.472C29.553 134.472 29.9744 134.525 30.3264 134.632C30.689 134.739 30.9877 134.867 31.2224 135.016C31.457 135.155 31.6224 135.283 31.7184 135.4V136.28C31.3877 136.045 31.0357 135.875 30.6624 135.768C30.289 135.661 29.8944 135.608 29.4784 135.608C29.1157 135.608 28.8224 135.656 28.5984 135.752C28.3744 135.837 28.2037 135.96 28.0864 136.12C27.9797 136.28 27.9264 136.477 27.9264 136.712ZM27.3824 133.56L26.6784 132.344C27.009 132.141 27.4357 131.944 27.9584 131.752C28.4917 131.56 29.0997 131.464 29.7824 131.464C30.3904 131.464 30.9237 131.555 31.3824 131.736C31.8517 131.917 32.2197 132.179 32.4864 132.52C32.753 132.851 32.8864 133.261 32.8864 133.752V139H31.1904V134.088C31.1904 133.853 31.1477 133.661 31.0624 133.512C30.9877 133.363 30.881 133.24 30.7424 133.144C30.6037 133.048 30.4384 132.979 30.2464 132.936C30.0544 132.893 29.8464 132.872 29.6224 132.872C29.281 132.872 28.9557 132.915 28.6464 133C28.3477 133.075 28.0864 133.171 27.8624 133.288C27.649 133.395 27.489 133.485 27.3824 133.56ZM39.6369 134.52C39.6369 133.976 39.5249 133.565 39.3009 133.288C39.0769 133.011 38.7302 132.872 38.2609 132.872C37.9409 132.872 37.6582 132.941 37.4129 133.08C37.1675 133.208 36.9755 133.4 36.8369 133.656C36.6982 133.901 36.6289 134.189 36.6289 134.52V139H34.9009V131.64H36.6289V132.776C36.8635 132.339 37.1622 132.013 37.5249 131.8C37.8982 131.587 38.3409 131.48 38.8529 131.48C39.6849 131.48 40.3195 131.736 40.7569 132.248C41.1942 132.749 41.4129 133.443 41.4129 134.328V139H39.6369V134.52ZM43.2036 139.496H44.9156C44.9263 139.827 45.017 140.125 45.1876 140.392C45.369 140.659 45.6143 140.867 45.9236 141.016C46.233 141.165 46.5903 141.24 46.9956 141.24C47.3583 141.24 47.705 141.155 48.0356 140.984C48.3663 140.813 48.633 140.552 48.8356 140.2C49.049 139.848 49.1556 139.395 49.1556 138.84V131.64H50.8516V138.84C50.8516 139.725 50.6703 140.456 50.3076 141.032C49.9556 141.608 49.4916 142.035 48.9156 142.312C48.3396 142.6 47.7156 142.744 47.0436 142.744C46.2436 142.744 45.561 142.605 44.9956 142.328C44.4303 142.061 43.993 141.683 43.6836 141.192C43.385 140.701 43.225 140.136 43.2036 139.496ZM43.0596 135.288C43.0596 134.467 43.225 133.779 43.5556 133.224C43.8863 132.659 44.3236 132.227 44.8676 131.928C45.4223 131.629 46.0143 131.48 46.6436 131.48C47.2623 131.48 47.801 131.635 48.2596 131.944C48.729 132.243 49.097 132.675 49.3636 133.24C49.641 133.805 49.7796 134.488 49.7796 135.288C49.7796 136.077 49.641 136.755 49.3636 137.32C49.097 137.885 48.729 138.323 48.2596 138.632C47.801 138.931 47.2623 139.08 46.6436 139.08C46.0143 139.08 45.4223 138.931 44.8676 138.632C44.3236 138.333 43.8863 137.901 43.5556 137.336C43.225 136.771 43.0596 136.088 43.0596 135.288ZM44.8516 135.288C44.8516 135.779 44.953 136.195 45.1556 136.536C45.3583 136.877 45.625 137.139 45.9556 137.32C46.297 137.491 46.665 137.576 47.0596 137.576C47.3903 137.576 47.7156 137.491 48.0356 137.32C48.3663 137.149 48.633 136.893 48.8356 136.552C49.049 136.2 49.1556 135.779 49.1556 135.288C49.1556 134.904 49.0916 134.573 48.9636 134.296C48.8463 134.008 48.6863 133.768 48.4836 133.576C48.281 133.373 48.0516 133.224 47.7956 133.128C47.5503 133.032 47.305 132.984 47.0596 132.984C46.665 132.984 46.297 133.075 45.9556 133.256C45.625 133.427 45.3583 133.683 45.1556 134.024C44.953 134.365 44.8516 134.787 44.8516 135.288ZM56.1946 139.16C55.448 139.16 54.7866 139 54.2106 138.68C53.6453 138.36 53.208 137.912 52.8986 137.336C52.5893 136.76 52.4346 136.088 52.4346 135.32C52.4346 134.541 52.5893 133.864 52.8986 133.288C53.2186 132.712 53.6666 132.269 54.2426 131.96C54.8186 131.64 55.496 131.48 56.2746 131.48C57.0533 131.48 57.7146 131.629 58.2586 131.928C58.8026 132.227 59.2186 132.659 59.5066 133.224C59.8053 133.779 59.9546 134.451 59.9546 135.24C59.9546 135.325 59.9493 135.416 59.9386 135.512C59.9386 135.608 59.9333 135.677 59.9226 135.72H53.4586V134.536H58.4506L57.9226 135.272C57.9546 135.208 57.9866 135.123 58.0186 135.016C58.0613 134.899 58.0826 134.803 58.0826 134.728C58.0826 134.333 58.0026 133.992 57.8426 133.704C57.6933 133.416 57.48 133.192 57.2026 133.032C56.936 132.872 56.6213 132.792 56.2586 132.792C55.8213 132.792 55.448 132.888 55.1386 133.08C54.8293 133.272 54.5946 133.549 54.4346 133.912C54.2746 134.275 54.1893 134.723 54.1786 135.256C54.1786 135.789 54.2586 136.243 54.4186 136.616C54.5786 136.979 54.8133 137.256 55.1226 137.448C55.4426 137.64 55.8266 137.736 56.2746 137.736C56.744 137.736 57.1546 137.64 57.5066 137.448C57.8586 137.256 58.152 136.963 58.3866 136.568L59.8746 137.176C59.4906 137.837 58.9946 138.333 58.3866 138.664C57.7786 138.995 57.048 139.16 56.1946 139.16ZM66.5449 127.8H68.4489V139H66.5449V127.8ZM81.3351 134.328V139H79.6071V134.52C79.6071 133.965 79.5058 133.555 79.3031 133.288C79.1111 133.011 78.8018 132.872 78.3751 132.872C78.0871 132.872 77.8311 132.936 77.6071 133.064C77.3938 133.192 77.2231 133.379 77.0951 133.624C76.9778 133.869 76.9191 134.168 76.9191 134.52V139H75.1911V134.52C75.1911 133.965 75.0898 133.555 74.8871 133.288C74.6951 133.011 74.3858 132.872 73.9591 132.872C73.6605 132.872 73.3991 132.936 73.1751 133.064C72.9618 133.192 72.7965 133.379 72.6791 133.624C72.5618 133.869 72.5031 134.168 72.5031 134.52V139H70.8071V131.64H72.5031V132.712C72.7165 132.307 72.9938 132.003 73.3351 131.8C73.6871 131.587 74.0978 131.48 74.5671 131.48C75.1111 131.48 75.5591 131.592 75.9111 131.816C76.2738 132.04 76.5351 132.365 76.6951 132.792C76.9511 132.365 77.2711 132.04 77.6551 131.816C78.0498 131.592 78.4978 131.48 78.9991 131.48C79.5218 131.48 79.9538 131.592 80.2951 131.816C80.6471 132.029 80.9085 132.349 81.0791 132.776C81.2498 133.203 81.3351 133.72 81.3351 134.328ZM84.6295 136.712C84.6295 136.957 84.6882 137.171 84.8055 137.352C84.9228 137.523 85.0828 137.651 85.2855 137.736C85.4988 137.821 85.7388 137.864 86.0055 137.864C86.3468 137.864 86.6562 137.795 86.9335 137.656C87.2215 137.517 87.4508 137.315 87.6215 137.048C87.8028 136.771 87.8935 136.451 87.8935 136.088L88.1495 137.048C88.1495 137.517 88.0108 137.912 87.7335 138.232C87.4668 138.541 87.1255 138.776 86.7095 138.936C86.3042 139.085 85.8882 139.16 85.4615 139.16C85.0028 139.16 84.5762 139.069 84.1815 138.888C83.7868 138.707 83.4722 138.44 83.2375 138.088C83.0028 137.736 82.8855 137.309 82.8855 136.808C82.8855 136.093 83.1362 135.528 83.6375 135.112C84.1388 134.685 84.8482 134.472 85.7655 134.472C86.2562 134.472 86.6775 134.525 87.0295 134.632C87.3922 134.739 87.6908 134.867 87.9255 135.016C88.1602 135.155 88.3255 135.283 88.4215 135.4V136.28C88.0908 136.045 87.7388 135.875 87.3655 135.768C86.9922 135.661 86.5975 135.608 86.1815 135.608C85.8188 135.608 85.5255 135.656 85.3015 135.752C85.0775 135.837 84.9068 135.96 84.7895 136.12C84.6828 136.28 84.6295 136.477 84.6295 136.712ZM84.0855 133.56L83.3815 132.344C83.7122 132.141 84.1388 131.944 84.6615 131.752C85.1948 131.56 85.8028 131.464 86.4855 131.464C87.0935 131.464 87.6268 131.555 88.0855 131.736C88.5548 131.917 88.9228 132.179 89.1895 132.52C89.4562 132.851 89.5895 133.261 89.5895 133.752V139H87.8935V134.088C87.8935 133.853 87.8508 133.661 87.7655 133.512C87.6908 133.363 87.5842 133.24 87.4455 133.144C87.3068 133.048 87.1415 132.979 86.9495 132.936C86.7575 132.893 86.5495 132.872 86.3255 132.872C85.9842 132.872 85.6588 132.915 85.3495 133C85.0508 133.075 84.7895 133.171 84.5655 133.288C84.3522 133.395 84.1922 133.485 84.0855 133.56ZM91.188 139.496H92.9C92.9107 139.827 93.0013 140.125 93.172 140.392C93.3533 140.659 93.5987 140.867 93.908 141.016C94.2173 141.165 94.5747 141.24 94.98 141.24C95.3427 141.24 95.6893 141.155 96.02 140.984C96.3507 140.813 96.6173 140.552 96.82 140.2C97.0333 139.848 97.14 139.395 97.14 138.84V131.64H98.836V138.84C98.836 139.725 98.6547 140.456 98.292 141.032C97.94 141.608 97.476 142.035 96.9 142.312C96.324 142.6 95.7 142.744 95.028 142.744C94.228 142.744 93.5453 142.605 92.98 142.328C92.4147 142.061 91.9773 141.683 91.668 141.192C91.3693 140.701 91.2093 140.136 91.188 139.496ZM91.044 135.288C91.044 134.467 91.2093 133.779 91.54 133.224C91.8707 132.659 92.308 132.227 92.852 131.928C93.4067 131.629 93.9987 131.48 94.628 131.48C95.2467 131.48 95.7853 131.635 96.244 131.944C96.7133 132.243 97.0813 132.675 97.348 133.24C97.6253 133.805 97.764 134.488 97.764 135.288C97.764 136.077 97.6253 136.755 97.348 137.32C97.0813 137.885 96.7133 138.323 96.244 138.632C95.7853 138.931 95.2467 139.08 94.628 139.08C93.9987 139.08 93.4067 138.931 92.852 138.632C92.308 138.333 91.8707 137.901 91.54 137.336C91.2093 136.771 91.044 136.088 91.044 135.288ZM92.836 135.288C92.836 135.779 92.9373 136.195 93.14 136.536C93.3427 136.877 93.6093 137.139 93.94 137.32C94.2813 137.491 94.6493 137.576 95.044 137.576C95.3747 137.576 95.7 137.491 96.02 137.32C96.3507 137.149 96.6173 136.893 96.82 136.552C97.0333 136.2 97.14 135.779 97.14 135.288C97.14 134.904 97.076 134.573 96.948 134.296C96.8307 134.008 96.6707 133.768 96.468 133.576C96.2653 133.373 96.036 133.224 95.78 133.128C95.5347 133.032 95.2893 132.984 95.044 132.984C94.6493 132.984 94.2813 133.075 93.94 133.256C93.6093 133.427 93.3427 133.683 93.14 134.024C92.9373 134.365 92.836 134.787 92.836 135.288ZM104.179 139.16C103.432 139.16 102.771 139 102.195 138.68C101.63 138.36 101.192 137.912 100.883 137.336C100.574 136.76 100.419 136.088 100.419 135.32C100.419 134.541 100.574 133.864 100.883 133.288C101.203 132.712 101.651 132.269 102.227 131.96C102.803 131.64 103.48 131.48 104.259 131.48C105.038 131.48 105.699 131.629 106.243 131.928C106.787 132.227 107.203 132.659 107.491 133.224C107.79 133.779 107.939 134.451 107.939 135.24C107.939 135.325 107.934 135.416 107.923 135.512C107.923 135.608 107.918 135.677 107.907 135.72H101.443V134.536H106.435L105.907 135.272C105.939 135.208 105.971 135.123 106.003 135.016C106.046 134.899 106.067 134.803 106.067 134.728C106.067 134.333 105.987 133.992 105.827 133.704C105.678 133.416 105.464 133.192 105.187 133.032C104.92 132.872 104.606 132.792 104.243 132.792C103.806 132.792 103.432 132.888 103.123 133.08C102.814 133.272 102.579 133.549 102.419 133.912C102.259 134.275 102.174 134.723 102.163 135.256C102.163 135.789 102.243 136.243 102.403 136.616C102.563 136.979 102.798 137.256 103.107 137.448C103.427 137.64 103.811 137.736 104.259 137.736C104.728 137.736 105.139 137.64 105.491 137.448C105.843 137.256 106.136 136.963 106.371 136.568L107.859 137.176C107.475 137.837 106.979 138.333 106.371 138.664C105.763 138.995 105.032 139.16 104.179 139.16Z" fill="#80BDFF"/>
</g>
<defs>
<filter id="filter0_d_2914_10283" x="0" y="0" width="115" height="153" filterUnits="userSpaceOnUse" color-interpolation-filters="sRGB">
<feFlood flood-opacity="0" result="BackgroundImageFix"/>
<feColorMatrix in="SourceAlpha" type="matrix" values="0 0 0 0 0 0 0 0 0 0 0 0 0 0 0 0 0 0 127 0" result="hardAlpha"/>
<feOffset dy="4"/>
<feGaussianBlur stdDeviation="2"/>
<feComposite in2="hardAlpha" operator="out"/>
<feColorMatrix type="matrix" values="0 0 0 0 0 0 0 0 0 0 0 0 0 0 0 0 0 0 0.25 0"/>
<feBlend mode="normal" in2="BackgroundImageFix" result="effect1_dropShadow_2914_10283"/>
<feBlend mode="normal" in="SourceGraphic" in2="effect1_dropShadow_2914_10283" result="shape"/>
</filter>
</defs>
</svg>
