<svg width="48" height="48" viewBox="0 0 48 48" fill="none" xmlns="http://www.w3.org/2000/svg">
<path d="M44 17.8628C44 16.6512 44 16.0454 43.7604 15.7649C43.5526 15.5215 43.2406 15.3923 42.9216 15.4174C42.5538 15.4463 42.1254 15.8747 41.2686 16.7315L34 24.0001L41.2686 31.2687C42.1254 32.1255 42.5538 32.5539 42.9216 32.5829C43.2406 32.6079 43.5526 32.4787 43.7604 32.2353C44 31.9549 44 31.3489 44 30.1373V17.8628Z" stroke="black" stroke-width="2" stroke-linecap="round" stroke-linejoin="round"/>
<path d="M4 19.6C4 16.2397 4 14.5595 4.65396 13.2761C5.2292 12.1471 6.14708 11.2292 7.27606 10.654C8.55952 10 10.2397 10 13.6 10H24.4C27.7604 10 29.4404 10 30.724 10.654C31.853 11.2292 32.7708 12.1471 33.346 13.2761C34 14.5595 34 16.2397 34 19.6V28.4C34 31.7604 34 33.4404 33.346 34.724C32.7708 35.853 31.853 36.7708 30.724 37.346C29.4404 38 27.7604 38 24.4 38H13.6C10.2397 38 8.55952 38 7.27606 37.346C6.14708 36.7708 5.2292 35.853 4.65396 34.724C4 33.4404 4 31.7604 4 28.4V19.6Z" stroke="black" stroke-width="2" stroke-linecap="round" stroke-linejoin="round"/>
<path d="M19 30C19.4158 30 19.7636 29.6758 19.7636 29.2767V23.7482H25.2448C25.6521 23.7482 26 23.4074 26 23C26 22.5926 25.6521 22.2601 25.2448 22.2601H19.7636V16.7233C19.7636 16.3242 19.4158 16 19 16C18.5842 16 18.2448 16.3242 18.2448 16.7233V22.2601H12.7552C12.3479 22.2601 12 22.5926 12 23C12 23.4074 12.3479 23.7482 12.7552 23.7482H18.2448V29.2767C18.2448 29.6758 18.5842 30 19 30Z" fill="#131313"/>
</svg>
