<svg width="18" height="19" viewBox="0 0 18 19" fill="none" xmlns="http://www.w3.org/2000/svg">
<path d="M13.5001 4.79004C13.0426 4.79004 12.6226 4.52754 12.4126 4.12254L11.8726 3.03504C11.5276 2.35254 10.6276 1.79004 9.86265 1.79004H8.14515C7.37263 1.79004 6.47263 2.35254 6.12763 3.03504L5.58763 4.12254C5.37763 4.52754 4.95763 4.79004 4.50013 4.79004C2.87263 4.79004 1.58263 6.16254 1.68763 7.78254L2.07763 13.9775C2.16763 15.5225 3.00013 16.79 5.07013 16.79H12.9301C15.0001 16.79 15.8251 15.5225 15.9226 13.9775L16.3126 7.78254C16.4176 6.16254 15.1276 4.79004 13.5001 4.79004ZM7.87515 5.72754H10.1251C10.4326 5.72754 10.6876 5.98254 10.6876 6.29004C10.6876 6.59754 10.4326 6.85254 10.1251 6.85254H7.87515C7.56765 6.85254 7.31263 6.59754 7.31263 6.29004C7.31263 5.98254 7.56765 5.72754 7.87515 5.72754ZM9.00015 13.88C7.60515 13.88 6.46513 12.7475 6.46513 11.345C6.46513 9.94254 7.59765 8.81004 9.00015 8.81004C10.4026 8.81004 11.5351 9.94254 11.5351 11.345C11.5351 12.7475 10.3951 13.88 9.00015 13.88Z" fill="white"/>
</svg>
