<svg width="87" height="83" viewBox="0 0 87 83" fill="none" xmlns="http://www.w3.org/2000/svg">
<path d="M43.106 49.3866C42.0009 49.3866 40.9411 48.9476 40.1597 48.1662C39.3783 47.3848 38.9393 46.325 38.9393 45.2199V32.7199C38.9393 31.6148 39.3783 30.555 40.1597 29.7736C40.9411 28.9922 42.0009 28.5532 43.106 28.5532C44.211 28.5532 45.2708 28.9922 46.0522 29.7736C46.8336 30.555 47.2726 31.6148 47.2726 32.7199V45.2199C47.2726 46.325 46.8336 47.3848 46.0522 48.1662C45.2708 48.9476 44.211 49.3866 43.106 49.3866ZM36.856 59.8032C36.856 58.1456 37.5144 56.5559 38.6865 55.3838C39.8586 54.2117 41.4484 53.5532 43.106 53.5532C44.7636 53.5532 46.3533 54.2117 47.5254 55.3838C48.6975 56.5559 49.356 58.1456 49.356 59.8032C49.356 61.4608 48.6975 63.0505 47.5254 64.2226C46.3533 65.3947 44.7636 66.0532 43.106 66.0532C41.4484 66.0532 39.8586 65.3947 38.6865 64.2226C37.5144 63.0505 36.856 61.4608 36.856 59.8032Z" fill="#D83738"/>
<path d="M35.7311 4.45312C38.8561 -1.48438 47.3561 -1.48438 50.4811 4.45312L85.2436 70.5031C88.1645 76.0531 84.1478 82.7198 77.8686 82.7198H8.34364C2.07281 82.7198 -1.94802 76.0531 0.968642 70.5073L35.7311 4.45312ZM77.8728 74.3865L43.1061 8.33229L8.33948 74.3865H77.8728Z" fill="#D83738"/>
</svg>
