<svg width="69" height="69" viewBox="0 0 69 69" fill="none" xmlns="http://www.w3.org/2000/svg">
<path d="M69 34.5C69 53.5538 53.5538 69 34.5 69C15.4462 69 0 53.5538 0 34.5C0 15.4462 15.4462 0 34.5 0C53.5538 0 69 15.4462 69 34.5Z" fill="#80BDFF"/>
<path d="M40.4286 17V19.45C40.4286 20.4301 40.4286 20.9201 40.195 21.2945C39.9895 21.6238 39.6619 21.8915 39.2586 22.0593C38.8002 22.25 38.2002 22.25 37 22.25H31C29.7998 22.25 29.1998 22.25 28.7415 22.0593C28.3383 21.8915 28.0104 21.6238 27.805 21.2945C27.5714 20.9201 27.5714 20.4301 27.5714 19.45V17M25.8571 52H42.1429C44.5431 52 45.7433 52 46.66 51.6185C47.4664 51.283 48.1221 50.7475 48.5329 50.089C49 49.3404 49 48.3602 49 46.4V22.6C49 20.6398 49 19.6597 48.5329 18.911C48.1221 18.2525 47.4664 17.717 46.66 17.3815C45.7433 17 44.5431 17 42.1429 17H25.8571C23.4569 17 22.2568 17 21.34 17.3815C20.5336 17.717 19.878 18.2525 19.4671 18.911C19 19.6597 19 20.6398 19 22.6V46.4C19 48.3602 19 49.3404 19.4671 50.089C19.878 50.7475 20.5336 51.283 21.34 51.6185C22.2568 52 23.4569 52 25.8571 52Z" stroke="white" stroke-width="4" stroke-linecap="round" stroke-linejoin="round"/>
</svg>
