<svg width="70" height="70" viewBox="0 0 70 70" fill="none" xmlns="http://www.w3.org/2000/svg">
<circle cx="35" cy="35" r="35" fill="#F2EFEF"/>
<path d="M34.5039 53C38.3207 52.9991 42.0326 51.7505 45.0739 49.4443C48.1152 47.1381 50.3191 43.9008 51.3498 40.2258C52.3805 36.5508 52.1815 32.6396 50.7831 29.0882C49.3846 25.5368 46.8634 22.54 43.6038 20.5544C40.3441 18.5688 36.5246 17.7034 32.7274 18.09C28.9302 18.4766 25.3636 20.0941 22.5709 22.6958C19.7783 25.2976 17.9128 28.7411 17.2588 32.5014C16.6048 36.2618 17.1981 40.1329 18.9484 43.5247L17.0039 53L26.4792 51.0555C28.8825 52.298 31.6125 53 34.5039 53Z" stroke="#131313" stroke-width="2.5" stroke-linecap="round" stroke-linejoin="round"/>
<path d="M25.7539 35.502H25.7734V35.5214H25.7539V35.502ZM34.5039 35.502H34.5233V35.5214H34.5039V35.502ZM43.2539 35.502H43.2733V35.5214H43.2539V35.502Z" stroke="#131313" stroke-width="3.5" stroke-linejoin="round"/>
</svg>
