<svg width="19" height="19" viewBox="0 0 19 19" fill="none" xmlns="http://www.w3.org/2000/svg">
<g clip-path="url(#clip0_4336_11310)">
<path d="M3.95898 11.8752C3.22125 11.8752 2.85238 11.8752 2.5614 11.7547C2.17344 11.594 1.86521 11.2857 1.70451 10.8978C1.58398 10.6068 1.58398 10.2379 1.58398 9.50016V4.11683C1.58398 3.23008 1.58398 2.7867 1.75656 2.44801C1.90835 2.15008 2.15057 1.90787 2.4485 1.75607C2.78719 1.5835 3.23057 1.5835 4.11732 1.5835H9.50065C10.2384 1.5835 10.6072 1.5835 10.8983 1.70402C11.2862 1.86472 11.5945 2.17296 11.7552 2.56091C11.8757 2.85189 11.8757 3.22076 11.8757 3.9585M9.65898 17.4168H14.884C15.7707 17.4168 16.2141 17.4168 16.5528 17.2442C16.8507 17.0925 17.093 16.8502 17.2447 16.5523C17.4173 16.2137 17.4173 15.7702 17.4173 14.8835V9.6585C17.4173 8.77175 17.4173 8.32834 17.2447 7.98966C17.093 7.69175 16.8507 7.44953 16.5528 7.29774C16.2141 7.12516 15.7707 7.12516 14.884 7.12516H9.65898C8.77224 7.12516 8.32883 7.12516 7.99015 7.29774C7.69224 7.44953 7.45002 7.69175 7.29823 7.98966C7.12565 8.32834 7.12565 8.77175 7.12565 9.6585V14.8835C7.12565 15.7702 7.12565 16.2137 7.29823 16.5523C7.45002 16.8502 7.69224 17.0925 7.99015 17.2442C8.32883 17.4168 8.77224 17.4168 9.65898 17.4168Z" stroke="black" stroke-width="2" stroke-linecap="round" stroke-linejoin="round"/>
</g>
<defs>
<clipPath id="clip0_4336_11310">
<rect width="19" height="19" fill="white"/>
</clipPath>
</defs>
</svg>
