<svg width="26" height="27" viewBox="0 0 26 27" fill="none" xmlns="http://www.w3.org/2000/svg">
<path d="M14.0827 7.87443H11.916V12.2078H7.58268V14.3744H11.916V18.7078H14.0827V14.3744H18.416V12.2078H14.0827V7.87443ZM12.9993 2.45776C7.01935 2.45776 2.16602 7.3111 2.16602 13.2911C2.16602 19.2711 7.01935 24.1244 12.9993 24.1244C18.9793 24.1244 23.8327 19.2711 23.8327 13.2911C23.8327 7.3111 18.9793 2.45776 12.9993 2.45776ZM12.9993 21.9578C8.22185 21.9578 4.33268 18.0686 4.33268 13.2911C4.33268 8.5136 8.22185 4.62443 12.9993 4.62443C17.7768 4.62443 21.666 8.5136 21.666 13.2911C21.666 18.0686 17.7768 21.9578 12.9993 21.9578Z" fill="black"/>
</svg>
