<svg width="250" height="250" viewBox="0 0 250 250" fill="none" xmlns="http://www.w3.org/2000/svg">
<g opacity="0.999999">
<path d="M118.507 200.034C180.296 206.288 212.14 191.088 214.041 154.436C216.892 99.4565 168.869 105.396 154.884 90.9059C140.898 76.416 156.565 97.0079 129.631 66.9815C111.674 46.9635 87.7459 46.8607 57.848 66.6738C33.7319 86.3016 31.1237 112.042 50.0224 143.895C68.9212 175.747 91.7491 194.46 118.507 200.034Z" fill="#F0F0F0"/>
</g>
<path d="M42.9505 165.339L40.9296 167.36L37.6217 164.05L34.3071 167.365L32.2861 165.344L35.5991 162.029L32.2912 158.721L34.3122 156.699L37.62 160.008L40.9347 156.695L42.9556 158.716L39.6427 162.031L42.9505 165.339Z" fill="#6F7C90"/>
<path d="M201.257 95.792C198.266 95.792 195.844 93.366 195.844 90.3755C195.844 87.385 198.266 84.959 201.257 84.959C204.248 84.959 206.671 87.385 206.671 90.3755C206.671 93.366 204.248 95.792 201.257 95.792ZM201.257 92.7049C202.537 92.7049 203.577 91.6634 203.577 90.3755C203.577 89.0876 202.537 88.0461 201.257 88.0461C199.976 88.0461 198.936 89.0876 198.936 90.3755C198.936 91.6634 199.976 92.7049 201.257 92.7049Z" fill="#4F5D73"/>
<mask id="mask0_2906_9524" style="mask-type:luminance" maskUnits="userSpaceOnUse" x="88" y="62" width="99" height="29">
<path d="M186.274 62.5371H89.0326L88.9766 90.3424H186.217L186.274 62.5371Z" fill="white"/>
</mask>
<g mask="url(#mask0_2906_9524)">
<path d="M90.4245 63.9494C102.886 63.9494 104.443 71.3146 104.443 78.6666V86.6877C104.443 87.9587 105.41 88.9914 106.599 88.9914L180.022 88.3528C181.212 88.3528 182.178 87.3209 182.178 86.0498V77.4026C182.178 69.5148 176.195 63.1191 168.815 63.1191C168.315 63.1191 89.9027 63.9494 90.4245 63.9494Z" fill="#4F5D73"/>
<path d="M90.4219 65.2969C90.4219 66.4994 91.3993 67.4752 92.6026 67.4752C168.831 67.4752 168.845 67.4745 168.859 67.4752C173.854 67.4838 177.902 71.5664 177.909 76.6061V86.9394H180.065C181.254 86.9394 182.22 85.9659 182.22 84.7657V76.6061C182.252 69.1536 176.289 63.0866 168.902 63.0547H168.816H168.011C167.814 63.0664 167.621 63.0983 167.426 63.1193H92.5994C91.397 63.1193 90.4219 64.0944 90.4219 65.2969Z" fill="#4F5D73"/>
</g>
<mask id="mask1_2906_9524" style="mask-type:luminance" maskUnits="userSpaceOnUse" x="59" y="61" width="120" height="131">
<path d="M178.814 61.1367H59.1865V191.394H178.814V61.1367Z" fill="white"/>
</mask>
<g mask="url(#mask1_2906_9524)">
<path d="M168.818 67.206V63.1172H91.1805C81.0076 63.1328 72.7646 71.4451 72.749 81.7021V188.421C72.749 189.62 73.7148 190.594 74.904 190.594H141.378C151.538 190.562 159.761 182.253 159.768 172.009V76.5891V76.4871C159.831 71.4895 163.863 67.22 168.818 67.213C168.839 67.213 168.857 67.2068 168.877 67.206H168.818Z" fill="white"/>
<path d="M91.1361 63.1182C80.9625 63.1345 72.7187 71.4468 72.7031 81.7039V144.182L119.122 63.0605L91.1361 63.1182Z" fill="#F0F0F0"/>
<path d="M72.7515 106.902V83.0798C72.7679 72.822 81.0109 64.5105 91.1845 64.4941H168.822M67.2344 187.639C71.8707 187.639 72.7095 182.713 72.7095 179.6C72.7095 154.143 72.7515 136.148 72.7515 129.692M73.1573 114.18V117.042" stroke="#4F5D73" stroke-width="7.2" stroke-miterlimit="10" stroke-linecap="round"/>
<path d="M168.822 63.0527H168.017C160.97 63.4819 155.47 69.3658 155.46 76.4881V76.6914V171.955C155.447 178.447 151.099 184.113 144.873 185.754C144.192 185.93 143.495 186.018 142.799 186.025V186.027H142.745H142.69H62.0996C65.3348 188.883 69.5669 190.619 74.2032 190.623H74.232H97.468H141.382C141.856 190.623 142.588 190.623 143.063 190.55C143.9 190.473 144.73 190.333 145.547 190.131C153.893 188.17 159.804 180.672 159.815 172.028V76.5605V76.4593C159.876 71.7747 163.435 67.897 168.059 67.4733C168.315 67.4593 168.804 67.4608 169.058 67.4733L168.822 63.0527Z" fill="#4F5D73"/>
</g>
<mask id="mask2_2906_9524" style="mask-type:luminance" maskUnits="userSpaceOnUse" x="54" y="166" width="89" height="26">
<path d="M142.865 166.506H54.5195V191.004H142.865V166.506Z" fill="white"/>
</mask>
<g mask="url(#mask2_2906_9524)">
<path d="M168.818 63.0527H168.013C160.967 63.4826 155.468 69.3658 155.458 76.4881V76.6914V171.955C155.445 178.447 151.097 184.114 144.871 185.754C143.457 186.122 141.973 186.122 140.56 185.754C134.315 184.091 129.968 178.385 129.985 171.869V168.97C129.994 167.77 129.036 166.789 127.846 166.782H114.186H103.204H86.2735H68.5469H57.9519C56.7626 166.782 55.7969 167.756 55.7969 168.956V172.029C55.7875 182.289 64.029 190.614 74.2011 190.623H74.2283H97.4643H141.378C141.852 190.623 142.585 190.623 143.059 190.55C143.897 190.473 144.728 190.334 145.545 190.131C153.891 188.171 159.801 180.673 159.811 172.029V76.5613V76.4593C159.872 71.7755 163.432 67.8962 168.057 67.4741C168.325 67.4593 168.593 67.4593 168.862 67.4741C173.857 67.4819 177.904 71.5652 177.913 76.6041V86.9382H180.068C181.258 86.9382 182.224 85.9647 182.224 84.7646V76.6041C182.255 69.1516 176.292 63.0854 168.905 63.0527H168.818Z" fill="#4F5D73"/>
</g>
<mask id="mask3_2906_9524" style="mask-type:luminance" maskUnits="userSpaceOnUse" x="0" y="0" width="250" height="250">
<path d="M0 0H250V250H0V0Z" fill="white"/>
</mask>
<g mask="url(#mask3_2906_9524)">
<mask id="mask4_2906_9524" style="mask-type:luminance" maskUnits="userSpaceOnUse" x="74" y="66" width="87" height="121">
<path d="M160.629 66.0039C155.567 66.0039 90.146 66.0039 90.146 66.0039L78.6585 74.1815L74.375 98.9089V166.861C74.375 166.861 126.556 166.861 128.113 166.861C129.671 166.861 129.866 168.224 129.866 169.197C129.866 170.171 130.839 186.331 142.327 186.331C153.814 186.331 155.372 175.817 155.372 169.976C155.372 164.135 155.372 77.102 155.372 75.155C155.372 73.208 157.708 67.3668 160.629 66.0039Z" fill="white"/>
</mask>
<g mask="url(#mask4_2906_9524)">
<path d="M172.52 154.32C183.96 143.838 184.752 126.085 174.291 114.669C163.83 103.252 146.076 102.495 134.636 112.978C123.196 123.46 122.402 141.213 132.864 152.63C143.325 164.047 161.08 164.803 172.52 154.32Z" fill="#6F7C90"/>
<path d="M172.52 154.32C183.96 143.838 184.752 126.085 174.291 114.669C163.83 103.252 146.076 102.495 134.636 112.978C123.196 123.46 122.402 141.213 132.864 152.63C143.325 164.047 161.08 164.803 172.52 154.32Z" stroke="#6F7C90" stroke-width="7.20001" stroke-miterlimit="10"/>
</g>
</g>
<path d="M90.1191 147.826H111.19" stroke="#4F5D73" stroke-width="7.2" stroke-miterlimit="10" stroke-linecap="round"/>
<path d="M90.1191 128.199H111.19" stroke="#4F5D73" stroke-width="7.2" stroke-miterlimit="10" stroke-linecap="round"/>
<path d="M90.1094 108.574H137.87" stroke="#4F5D73" stroke-width="7.2" stroke-miterlimit="10" stroke-linecap="round"/>
<path d="M90.1094 87.5449H143.389" stroke="#4F5D73" stroke-width="7.2" stroke-miterlimit="10" stroke-linecap="round"/>
<path d="M173.936 145.745C175.404 144.281 177.779 144.284 179.245 145.748L197.772 164.244C199.234 165.703 199.235 168.072 197.776 169.534L197.77 169.541C196.302 171.003 193.926 171.003 192.459 169.538L173.932 151.042C172.471 149.582 172.469 147.214 173.929 145.752L173.936 145.745Z" fill="#334158"/>
<path d="M177.884 149.57C189.324 139.088 190.117 121.335 179.656 109.919C169.194 98.502 151.44 97.745 140.001 108.228C128.561 118.71 127.766 136.463 138.228 147.88C148.689 159.297 166.444 160.053 177.884 149.57Z" fill="white"/>
<path d="M177.884 149.57C189.324 139.088 190.117 121.335 179.656 109.919C169.194 98.502 151.44 97.745 140.001 108.228C128.561 118.71 127.766 136.463 138.228 147.88C148.689 159.297 166.444 160.053 177.884 149.57Z" stroke="#334158" stroke-width="7.20001" stroke-miterlimit="10"/>
<path d="M169.304 135.201L166.647 137.857L159.807 131.017L153.019 137.805L150.347 135.133L157.135 128.345L150.295 121.504L152.952 118.848L159.792 125.688L166.58 118.9L169.252 121.572L162.464 128.361L169.304 135.201Z" fill="#334158"/>
</svg>
