<svg width="14" height="15" viewBox="0 0 14 15" fill="none" xmlns="http://www.w3.org/2000/svg">
<path d="M12 1.5H11.25V0.75C11.25 0.3375 10.9125 0 10.5 0C10.0875 0 9.75 0.3375 9.75 0.75V1.5H3.75V0.75C3.75 0.3375 3.4125 0 3 0C2.5875 0 2.25 0.3375 2.25 0.75V1.5H1.5C0.6675 1.5 0.00749999 2.175 0.00749999 3L0 13.5C0 13.8978 0.158035 14.2794 0.43934 14.5607C0.720644 14.842 1.10218 15 1.5 15H12C12.825 15 13.5 14.325 13.5 13.5V3C13.5 2.175 12.825 1.5 12 1.5ZM12 12.75C12 13.1625 11.6625 13.5 11.25 13.5H2.25C1.8375 13.5 1.5 13.1625 1.5 12.75V5.25H12V12.75ZM3 6.75H4.5V8.25H3V6.75ZM6 6.75H7.5V8.25H6V6.75ZM9 6.75H10.5V8.25H9V6.75Z" fill="#D83738"/>
</svg>
