<svg width="17" height="19" viewBox="0 0 17 19" fill="none" xmlns="http://www.w3.org/2000/svg">
<path d="M11.6667 4.74967V4.11634C11.6667 3.2296 11.6667 2.78621 11.4941 2.44752C11.3423 2.1496 11.1001 1.90738 10.8022 1.75558C10.4635 1.58301 10.0201 1.58301 9.13333 1.58301H7.86667C6.97992 1.58301 6.53654 1.58301 6.19785 1.75558C5.89992 1.90738 5.6577 2.1496 5.50591 2.44752C5.33333 2.78621 5.33333 3.2296 5.33333 4.11634V4.74967M6.91667 9.10384V13.0622M10.0833 9.10384V13.0622M1.375 4.74967H15.625M14.0417 4.74967V13.6163C14.0417 14.9465 14.0417 15.6115 13.7828 16.1196C13.5551 16.5665 13.1918 16.9298 12.7449 17.1575C12.2368 17.4163 11.5718 17.4163 10.2417 17.4163H6.75833C5.42821 17.4163 4.76314 17.4163 4.25511 17.1575C3.80822 16.9298 3.44489 16.5665 3.21719 16.1196C2.95833 15.6115 2.95833 14.9465 2.95833 13.6163V4.74967" stroke="#B82425" stroke-opacity="0.74" stroke-width="2" stroke-linecap="round" stroke-linejoin="round"/>
</svg>
