<svg width="20" height="20" viewBox="0 0 20 20" fill="none" xmlns="http://www.w3.org/2000/svg">
<path d="M19 17.0002L17.9999 18.0942C17.4695 18.6743 16.7502 19.0002 16.0002 19.0002C15.2501 19.0002 14.5308 18.6743 14.0004 18.0942C13.4693 17.5153 12.75 17.1903 12.0002 17.1903C11.2504 17.1903 10.5312 17.5153 9.99997 18.0942M1 19.0002H2.67454C3.16373 19.0002 3.40832 19.0002 3.63849 18.9449C3.84256 18.8959 4.03765 18.8151 4.2166 18.7055C4.41843 18.5818 4.59138 18.4088 4.93729 18.0629L17.5001 5.50022C18.3285 4.6718 18.3285 3.32865 17.5001 2.50022C16.6716 1.6718 15.3285 1.6718 14.5001 2.50022L1.93726 15.0629C1.59136 15.4088 1.4184 15.5818 1.29472 15.7836C1.18506 15.9626 1.10425 16.1576 1.05526 16.3617C1 16.5919 1 16.8365 1 17.3257V19.0002Z" stroke="#5F5F5F" stroke-opacity="0.78" stroke-width="2" stroke-linecap="round" stroke-linejoin="round"/>
</svg>
