<svg width="19" height="19" viewBox="0 0 19 19" fill="none" xmlns="http://www.w3.org/2000/svg">
<g clip-path="url(#clip0_4336_11825)">
<path d="M2.27621 14.3411C2.31258 14.0138 2.33078 13.8501 2.38029 13.6972C2.42423 13.5614 2.48631 13.4323 2.56486 13.3131C2.65337 13.1789 2.76983 13.0625 3.00272 12.8296L13.4577 2.37459C14.3322 1.50014 15.7499 1.50014 16.6244 2.37459C17.4988 3.24904 17.4988 4.6668 16.6244 5.54125L6.16939 15.9962C5.93649 16.2292 5.82004 16.3455 5.6858 16.4341C5.56671 16.5126 5.43754 16.5747 5.30181 16.6187C5.14882 16.6681 4.98515 16.6863 4.65781 16.7228L1.97852 17.0204L2.27621 14.3411Z" stroke="black" stroke-width="2" stroke-linecap="round" stroke-linejoin="round"/>
</g>
<defs>
<clipPath id="clip0_4336_11825">
<rect width="19" height="19" fill="white"/>
</clipPath>
</defs>
</svg>
