<svg width="19" height="19" viewBox="0 0 19 19" fill="none" xmlns="http://www.w3.org/2000/svg">
<path d="M1.58203 5.5415L5.69382 8.28273C5.93104 8.44082 6.04965 8.51991 6.17797 8.57596C6.29187 8.62568 6.41122 8.66178 6.53357 8.68363C6.67141 8.70817 6.81397 8.70817 7.09906 8.70817H11.8983C12.1834 8.70817 12.326 8.70817 12.4638 8.68363C12.5862 8.66178 12.7055 8.62568 12.8194 8.57596C12.9478 8.51991 13.0663 8.44082 13.3036 8.28273L17.4154 5.5415M5.38203 15.8332H13.6154C14.9455 15.8332 15.6105 15.8332 16.1186 15.5743C16.5655 15.3466 16.9288 14.9833 17.1565 14.5364C17.4154 14.0283 17.4154 13.3633 17.4154 12.0332V6.9665C17.4154 5.63638 17.4154 4.97131 17.1565 4.46328C16.9288 4.01639 16.5655 3.65306 16.1186 3.42536C15.6105 3.1665 14.9455 3.1665 13.6154 3.1665H5.38203C4.0519 3.1665 3.38684 3.1665 2.8788 3.42536C2.43192 3.65306 2.06859 4.01639 1.84089 4.46328C1.58203 4.97131 1.58203 5.63638 1.58203 6.9665V12.0332C1.58203 13.3633 1.58203 14.0283 1.84089 14.5364C2.06859 14.9833 2.43192 15.3466 2.8788 15.5743C3.38684 15.8332 4.0519 15.8332 5.38203 15.8332Z" stroke="#80BDFF" stroke-width="2" stroke-linecap="round" stroke-linejoin="round"/>
</svg>
