<svg width="35" height="35" viewBox="0 0 35 35" fill="none" xmlns="http://www.w3.org/2000/svg">
<path d="M31.2313 22.3698C27.1142 25.2987 21.7142 25.6241 17.3209 23.3307M3.76932 12.6249C7.89631 9.68898 13.3126 9.3692 17.7115 11.6808M22.4203 20.5953C26.6301 17.9422 29.0677 13.0847 28.5851 8.03605M12.5155 14.4403C8.34536 17.1023 5.93514 21.936 6.41521 26.9588M22.6437 14.7805C22.4498 9.80981 19.4618 5.27195 14.8492 3.16522M12.3606 20.3056C12.5874 25.2406 15.567 29.7357 20.1511 31.8296M27.8122 7.18542C33.5074 12.8806 33.5074 22.1142 27.8122 27.8093C22.1171 33.5045 12.8835 33.5045 7.18835 27.8093C1.49321 22.1142 1.49321 12.8805 7.18835 7.18542C12.8835 1.49028 22.1171 1.49028 27.8122 7.18542ZM21.6251 13.3726C23.9031 15.6507 23.9031 19.3441 21.6251 21.6221C19.347 23.9002 15.6536 23.9002 13.3755 21.6221C11.0975 19.3441 11.0975 15.6507 13.3755 13.3726C15.6536 11.0946 19.347 11.0946 21.6251 13.3726Z" stroke="#D83738" stroke-width="2" stroke-linecap="round" stroke-linejoin="round"/>
</svg>
