<svg width="35" height="35" viewBox="0 0 35 35" fill="none" xmlns="http://www.w3.org/2000/svg">
<path d="M13.8545 13.0766C13.8545 12.3806 13.8545 12.0326 13.9999 11.8383C14.1267 11.669 14.3207 11.563 14.5317 11.548C14.7738 11.5307 15.0665 11.7189 15.652 12.0953L22.5362 16.5209C23.0443 16.8474 23.2984 17.0107 23.386 17.2184C23.4627 17.3998 23.4627 17.6046 23.386 17.786C23.2984 17.9937 23.0443 18.157 22.5362 18.4835L15.652 22.9091C15.0665 23.2855 14.7738 23.4738 14.5317 23.4564C14.3207 23.4414 14.1267 23.3354 13.9999 23.1661C13.8545 22.9718 13.8545 22.6239 13.8545 21.9278V13.0766Z" stroke="#D83738" stroke-width="2" stroke-linecap="round" stroke-linejoin="round"/>
<path d="M4.375 11.375C4.375 8.92477 4.375 7.69965 4.85185 6.76379C5.27129 5.94058 5.94058 5.27129 6.76379 4.85185C7.69965 4.375 8.92477 4.375 11.375 4.375H23.625C26.0753 4.375 27.3003 4.375 28.2362 4.85185C29.0595 5.27129 29.7287 5.94058 30.1481 6.76379C30.625 7.69965 30.625 8.92477 30.625 11.375V23.625C30.625 26.0753 30.625 27.3003 30.1481 28.2362C29.7287 29.0595 29.0595 29.7287 28.2362 30.1481C27.3003 30.625 26.0753 30.625 23.625 30.625H11.375C8.92477 30.625 7.69965 30.625 6.76379 30.1481C5.94058 29.7287 5.27129 29.0595 4.85185 28.2362C4.375 27.3003 4.375 26.0753 4.375 23.625V11.375Z" stroke="#D83738" stroke-width="2" stroke-linecap="round" stroke-linejoin="round"/>
</svg>
