<svg width="22" height="20" viewBox="0 0 22 20" fill="none" xmlns="http://www.w3.org/2000/svg">
<path d="M9.58665 3.09232C9.99315 3.03223 10.4123 3 10.8441 3C15.9491 3 19.299 7.50484 20.4244 9.2868C20.5606 9.5025 20.6287 9.6103 20.6668 9.7767C20.6955 9.9016 20.6954 10.0987 20.6668 10.2236C20.6286 10.3899 20.5601 10.4985 20.4229 10.7156C20.123 11.1901 19.6659 11.8571 19.0602 12.5805M5.56807 4.71504C3.406 6.1817 1.9382 8.2194 1.26486 9.2853C1.12803 9.5019 1.05962 9.6102 1.02149 9.7765C0.992848 9.9014 0.992837 10.0984 1.02146 10.2234C1.05958 10.3897 1.12768 10.4975 1.26388 10.7132C2.38929 12.4952 5.73916 17 10.8441 17C12.9025 17 14.6756 16.2676 16.1325 15.2766M1.84417 1L19.8441 19M8.72285 7.87868C8.17995 8.4216 7.84417 9.1716 7.84417 10C7.84417 11.6569 9.18735 13 10.8441 13C11.6725 13 12.4225 12.6642 12.9654 12.1213" stroke="black" stroke-width="2" stroke-linecap="round" stroke-linejoin="round"/>
</svg>
