<svg width="195" height="195" viewBox="0 0 195 195" fill="none" xmlns="http://www.w3.org/2000/svg">
<path d="M97.5008 176.719C134.238 164.056 160.425 134.619 164.532 97.1384C165.67 80.8681 165.576 64.5369 164.244 48.2787C164.069 45.7161 162.944 43.3109 161.09 41.5334C159.236 39.7558 156.785 38.7337 154.217 38.6669C137.598 38.155 118.281 35.3844 103.355 20.6822C101.796 19.1428 99.6936 18.2795 97.5029 18.2795C95.3121 18.2795 93.2096 19.1428 91.6508 20.6822C76.7211 35.3844 57.404 38.155 40.7883 38.6669C38.2206 38.7337 35.7701 39.7558 33.9159 41.5334C32.0617 43.3109 30.9372 45.7161 30.7621 48.2787C29.4294 64.5345 29.3317 80.8679 30.4696 97.1384C34.5808 134.619 60.7636 164.056 97.5008 176.719Z" stroke="#699BF7" stroke-width="3" stroke-linecap="round" stroke-linejoin="round"/>
<path d="M74.4344 85.5075H120.568C122.315 85.5075 123.737 86.9253 123.737 88.6762V122.769C123.737 124.516 122.315 125.937 120.568 125.937H74.4344C73.594 125.937 72.788 125.604 72.1937 125.009C71.5995 124.415 71.2656 123.609 71.2656 122.769V88.6722C71.2656 86.9253 72.6875 85.5075 74.4344 85.5075Z" stroke="#699BF7" stroke-width="3" stroke-linecap="round" stroke-linejoin="round"/>
<path d="M80.1367 85.5075V78.2356C80.1367 73.6344 81.9645 69.2216 85.2181 65.9681C88.4716 62.7145 92.8844 60.8867 97.4856 60.8867C102.087 60.8867 106.5 62.7145 109.753 65.9681C113.007 69.2216 114.835 73.6344 114.835 78.2356V85.5075" stroke="#699BF7" stroke-width="3" stroke-linecap="round" stroke-linejoin="round"/>
<path d="M97.4853 112.45C101.201 112.45 104.213 109.438 104.213 105.722C104.213 102.007 101.201 98.995 97.4853 98.995C93.7698 98.995 90.7578 102.007 90.7578 105.722C90.7578 109.438 93.7698 112.45 97.4853 112.45Z" stroke="#699BF7" stroke-width="3" stroke-linecap="round" stroke-linejoin="round"/>
</svg>
