<svg width="19" height="19" viewBox="0 0 19 19" fill="none" xmlns="http://www.w3.org/2000/svg">
<path d="M13.4596 7.91667V6.33333C13.4596 4.14721 11.6874 2.375 9.5013 2.375C7.31518 2.375 5.54297 4.14721 5.54297 6.33333V7.91667M9.5013 11.4792V13.0625M6.96797 16.625H12.0346C13.3648 16.625 14.0298 16.625 14.5379 16.3661C14.9848 16.1384 15.3481 15.7751 15.5758 15.3282C15.8346 14.8202 15.8346 14.1552 15.8346 12.825V11.7167C15.8346 10.3865 15.8346 9.72151 15.5758 9.21342C15.3481 8.76652 14.9848 8.40322 14.5379 8.17554C14.0298 7.91667 13.3648 7.91667 12.0346 7.91667H6.96797C5.63784 7.91667 4.97278 7.91667 4.46474 8.17554C4.01785 8.40322 3.65453 8.76652 3.42683 9.21342C3.16797 9.72151 3.16797 10.3865 3.16797 11.7167V12.825C3.16797 14.1552 3.16797 14.8202 3.42683 15.3282C3.65453 15.7751 4.01785 16.1384 4.46474 16.3661C4.97278 16.625 5.63784 16.625 6.96797 16.625Z" stroke="#80BDFF" stroke-width="2" stroke-linecap="round" stroke-linejoin="round"/>
</svg>
