
<svg width="52" height="51" viewBox="0 0 52 51" fill="none" xmlns="http://www.w3.org/2000/svg">
<path d="M47.1676 25.4007C47.1676 24.2316 46.2199 23.2839 45.0508 23.2839C43.8816 23.2839 42.9339 24.2316 42.9339 25.4007H47.1676ZM25.9993 8.46608C27.1684 8.46608 28.1161 7.51834 28.1161 6.34925C28.1161 5.18016 27.1684 4.23242 25.9993 4.23242V8.46608ZM41.8755 42.3353H10.1231V46.569H41.8755V42.3353ZM9.06471 41.2769V9.52449H4.83105V41.2769H9.06471ZM42.9339 25.4007V41.2769H47.1676V25.4007H42.9339ZM10.1231 8.46608H25.9993V4.23242H10.1231V8.46608ZM10.1231 42.3353C9.53858 42.3353 9.06471 41.8615 9.06471 41.2769H4.83105C4.83105 44.1996 7.20039 46.569 10.1231 46.569V42.3353ZM41.8755 46.569C44.7982 46.569 47.1676 44.1996 47.1676 41.2769H42.9339C42.9339 41.8615 42.4601 42.3353 41.8755 42.3353V46.569ZM9.06471 9.52449C9.06471 8.93995 9.53857 8.46608 10.1231 8.46608V4.23242C7.2004 4.23242 4.83105 6.60175 4.83105 9.52449H9.06471Z" fill="#A6A5A5"/>
<path d="M6.94824 37.0443L18.266 26.6697C19.0553 25.9461 20.2609 25.9259 21.0739 26.6229L34.467 38.1027" stroke="#A6A5A5" stroke-width="4.23365" stroke-linecap="round" stroke-linejoin="round"/>
<path d="M30.2334 32.81L35.2857 27.7576C36.0305 27.0128 37.2098 26.929 38.0526 27.5611L45.0512 32.81" stroke="#A6A5A5" stroke-width="4.23365" stroke-linecap="round" stroke-linejoin="round"/>
<path d="M32.3496 12.7002H45.0506" stroke="#D83738" stroke-width="4.23365" stroke-linecap="round" stroke-linejoin="round"/>
<path d="M38.7002 6.34961V19.0506" stroke="#D83738" stroke-width="4.23365" stroke-linecap="round" stroke-linejoin="round"/>
</svg>
