<svg width="10" height="10" viewBox="0 0 10 10" fill="none" xmlns="http://www.w3.org/2000/svg">
<path d="M8.10894 1V2.77778M8.10894 9V4.55556M4.99783 1V6.33333M4.99783 9V8.11111M1.88672 1V1.88889M1.88672 9V3.66667" stroke="black" stroke-linecap="round"/>
<path d="M7.22222 3.66672C7.22222 4.15764 7.62019 4.55561 8.11111 4.55561C8.60203 4.55561 9 4.15764 9 3.66672C9 3.1758 8.60203 2.77783 8.11111 2.77783C7.62019 2.77783 7.22222 3.1758 7.22222 3.66672Z" stroke="black" stroke-linecap="round"/>
<path d="M4.10894 7.2219C4.10894 7.71282 4.50691 8.11079 4.99783 8.11079C5.48875 8.11079 5.88672 7.71282 5.88672 7.2219C5.88672 6.73098 5.48875 6.33301 4.99783 6.33301C4.50691 6.33301 4.10894 6.73098 4.10894 7.2219Z" stroke="black" stroke-linecap="round"/>
<path d="M0.999566 2.77805C0.999566 3.26897 1.39753 3.66694 1.88845 3.66694C2.37937 3.66694 2.77734 3.26897 2.77734 2.77805C2.77734 2.28713 2.37937 1.88916 1.88845 1.88916C1.39753 1.88916 0.999566 2.28713 0.999566 2.77805Z" stroke="black" stroke-linecap="round"/>
</svg>
