<svg width="26" height="18" viewBox="0 0 26 18" fill="none" xmlns="http://www.w3.org/2000/svg">
<path d="M11.3876 0.0984938C11.5563 0.17978 11.6987 0.306998 11.7984 0.465546C11.8981 0.624094 11.9511 0.807544 11.9513 0.994839V16.9299C11.951 17.1173 11.8979 17.3008 11.798 17.4594C11.6981 17.6179 11.5554 17.7451 11.3865 17.8262C11.2176 17.9073 11.0292 17.9392 10.843 17.918C10.6568 17.8969 10.4803 17.8236 10.3339 17.7067L5.62705 13.942H0.995939C0.731799 13.942 0.478478 13.8371 0.291704 13.6503C0.104929 13.4636 0 13.2102 0 12.9461V4.97859C0 4.71445 0.104929 4.46113 0.291704 4.27436C0.478478 4.08758 0.731799 3.98266 0.995939 3.98266H5.62705L10.3339 0.218006C10.4804 0.10086 10.6571 0.0274895 10.8435 0.0063455C11.0299 -0.0147985 11.2185 0.0171439 11.3876 0.0984938ZM25.6036 4.27347C25.6963 4.36598 25.7699 4.47589 25.8201 4.59688C25.8703 4.71788 25.8962 4.84759 25.8962 4.97859C25.8962 5.10959 25.8703 5.23931 25.8201 5.3603C25.7699 5.4813 25.6963 5.5912 25.6036 5.68372L22.323 8.96235L25.6036 12.241C25.7906 12.428 25.8957 12.6816 25.8957 12.9461C25.8957 13.2106 25.7906 13.4642 25.6036 13.6512C25.4166 13.8382 25.1629 13.9433 24.8985 13.9433C24.634 13.9433 24.3804 13.8382 24.1933 13.6512L20.9147 10.3706L17.6361 13.6512C17.4491 13.8382 17.1954 13.9433 16.931 13.9433C16.6665 13.9433 16.4128 13.8382 16.2258 13.6512C16.0388 13.4642 15.9338 13.2106 15.9338 12.9461C15.9338 12.6816 16.0388 12.428 16.2258 12.241L19.5065 8.96235L16.2258 5.68372C16.1332 5.59112 16.0598 5.48119 16.0097 5.36021C15.9596 5.23922 15.9338 5.10955 15.9338 4.97859C15.9338 4.84764 15.9596 4.71797 16.0097 4.59698C16.0598 4.476 16.1332 4.36607 16.2258 4.27347C16.4128 4.08646 16.6665 3.9814 16.931 3.9814C17.0619 3.9814 17.1916 4.00719 17.3126 4.0573C17.4336 4.10742 17.5435 4.18087 17.6361 4.27347L20.9147 7.55409L24.1933 4.27347C24.2859 4.18072 24.3958 4.10713 24.5168 4.05693C24.6378 4.00672 24.7675 3.98088 24.8985 3.98088C25.0295 3.98088 25.1592 4.00672 25.2802 4.05693C25.4012 4.10713 25.5111 4.18072 25.6036 4.27347Z" fill="white"/>
</svg>
