<svg width="33" height="39" viewBox="0 0 33 39" fill="none" xmlns="http://www.w3.org/2000/svg">
<path d="M16.5014 36.9686C24.6025 34.1763 30.377 27.6851 31.2827 19.4202C31.5335 15.8323 31.5129 12.2311 31.2191 8.64597C31.1805 8.08088 30.9325 7.5505 30.5236 7.15853C30.1148 6.76655 29.5744 6.54117 29.0082 6.52643C25.3433 6.41355 21.0836 5.80259 17.7923 2.56057C17.4486 2.22111 16.985 2.03076 16.5019 2.03076C16.0188 2.03076 15.5552 2.22111 15.2114 2.56057C11.9193 5.80259 7.65957 6.41355 3.99561 6.52643C3.4294 6.54117 2.88903 6.76655 2.48016 7.15853C2.07129 7.5505 1.82331 8.08088 1.7847 8.64597C1.49083 12.2306 1.46927 15.8323 1.7202 19.4202C2.62678 27.6851 8.40043 34.1763 16.5014 36.9686Z" stroke="#699BF7" stroke-width="3" stroke-linecap="round" stroke-linejoin="round"/>
</svg>
