<svg width="70" height="70" viewBox="0 0 70 70" fill="none" xmlns="http://www.w3.org/2000/svg">
<circle cx="35" cy="35" r="35" fill="#F2EFEF"/>
<path fill-rule="evenodd" clip-rule="evenodd" d="M42.6512 21.4184C37.7841 20.604 32.8155 20.604 27.9484 21.4184C27.502 21.4931 27.0889 21.7014 26.7634 22.0159C26.438 22.3303 26.2155 22.736 26.1255 23.1795C24.4676 31.4112 24.3774 39.8818 25.8595 48.147L26.1648 49.8574L33.0404 43.3247C33.6498 42.7457 34.4582 42.4228 35.2989 42.4228C36.1395 42.4228 36.9479 42.7457 37.5573 43.3247L44.4329 49.8574L44.7401 48.147C46.2222 39.8818 46.1319 31.4112 44.4741 23.1795C44.384 22.736 44.1616 22.3303 43.8361 22.0159C43.5107 21.7014 43.0975 21.4931 42.6512 21.4184ZM27.4837 18.6495C32.6585 17.7835 37.9411 17.7835 43.1158 18.6495C44.1232 18.8184 45.0557 19.289 45.7899 19.9992C46.5242 20.7093 47.0256 21.6256 47.2281 22.6268C48.9573 31.2053 49.0509 40.0312 47.5072 48.6453L47.0913 50.959C47.0123 51.3993 46.8157 51.81 46.5222 52.1476C46.2287 52.4852 45.8493 52.7371 45.4243 52.8765C44.9992 53.0159 44.5444 53.0378 44.108 52.9396C43.6715 52.8415 43.2698 52.6271 42.9453 52.3192L35.622 45.363C35.535 45.2805 35.4197 45.2346 35.2998 45.2346C35.1799 45.2346 35.0646 45.2805 34.9776 45.363L27.6542 52.3192C27.3298 52.6271 26.928 52.8415 26.4916 52.9396C26.0552 53.0378 25.6003 53.0159 25.1753 52.8765C24.7503 52.7371 24.3709 52.4852 24.0774 52.1476C23.7839 51.81 23.5872 51.3993 23.5083 50.959L23.0924 48.6453C21.5479 40.0322 21.642 31.205 23.3696 22.6268C23.5722 21.6253 24.0739 20.7089 24.8085 19.9987C25.5431 19.2885 26.476 18.818 27.4837 18.6495Z" fill="#131313"/>
</svg>
