<svg width="19" height="19" viewBox="0 0 19 19" fill="none" xmlns="http://www.w3.org/2000/svg">
<path d="M8.94872 17.1117C9.12399 17.2139 9.21163 17.2651 9.33529 17.2916C9.43132 17.3122 9.57129 17.3122 9.66731 17.2916C9.79097 17.2651 9.87861 17.2139 10.0539 17.1117C11.5961 16.212 15.8346 13.3858 15.8346 9.49993V6.49158C15.8346 5.64141 15.8346 5.21633 15.7036 4.91458C15.5704 4.60789 15.4377 4.44473 15.1646 4.25187C14.8958 4.06213 14.3689 3.95256 13.3153 3.73343C12.154 3.49191 11.2622 3.05577 10.4469 2.42504C10.0559 2.12258 9.8604 1.97135 9.70737 1.93011C9.54595 1.88658 9.45665 1.88658 9.29523 1.93011C9.1422 1.97135 8.94674 2.12258 8.55574 2.42504C7.74041 3.05577 6.84859 3.49191 5.68729 3.73343C4.63364 3.95256 4.10681 4.06213 3.83807 4.25187C3.56493 4.44473 3.43222 4.60789 3.29902 4.91458C3.16797 5.21633 3.16797 5.64141 3.16797 6.49158V9.49993C3.16797 13.3858 7.40652 16.212 8.94872 17.1117Z" stroke="#80BDFF" stroke-width="2" stroke-linecap="round" stroke-linejoin="round"/>
</svg>
