<svg width="70" height="70" viewBox="0 0 70 70" fill="none" xmlns="http://www.w3.org/2000/svg">
<circle cx="35" cy="35" r="35" fill="#F2EFEF"/>
<path d="M51.1623 18.843C50.7845 18.467 50.3106 18.2026 49.7926 18.0789C49.2747 17.9553 48.7327 17.9772 48.2264 18.1423L19.0072 27.9128C18.4653 28.085 17.9865 28.4142 17.6311 28.859C17.2758 29.3039 17.0599 29.8443 17.0108 30.412C16.9616 30.9797 17.0814 31.5493 17.355 32.0488C17.6286 32.5484 18.0437 32.9554 18.5479 33.2186L30.6709 39.2251L36.6626 51.4183C36.9034 51.8955 37.2719 52.2962 37.7269 52.5756C38.1819 52.8549 38.7054 53.0019 39.239 53H39.4387C40.0101 52.9578 40.5556 52.7443 41.0044 52.3872C41.4532 52.0302 41.7844 51.5461 41.9552 50.9978L51.8414 21.7862C52.0179 21.2815 52.0478 20.737 51.9276 20.2159C51.8074 19.6948 51.542 19.2187 51.1623 18.843ZM20.2455 30.6758L45.7499 22.1466L31.5897 36.342L20.2455 30.6758ZM39.3788 49.8366L33.7067 38.4643L47.8669 24.2689L39.3788 49.8366Z" fill="#131313"/>
</svg>
