<svg width="19" height="19" viewBox="0 0 19 19" fill="none" xmlns="http://www.w3.org/2000/svg">
<path d="M9.4987 13.8543H9.50661M6.49036 17.4168H12.507C13.3938 17.4168 13.8372 17.4168 14.1759 17.2442C14.4738 17.0925 14.716 16.8502 14.8678 16.5523C15.0404 16.2137 15.0404 15.7702 15.0404 14.8835V4.11683C15.0404 3.23008 15.0404 2.7867 14.8678 2.44801C14.716 2.15008 14.4738 1.90787 14.1759 1.75607C13.8372 1.5835 13.3938 1.5835 12.507 1.5835H6.49036C5.60362 1.5835 5.16024 1.5835 4.82155 1.75607C4.52362 1.90787 4.2814 2.15008 4.12961 2.44801C3.95703 2.7867 3.95703 3.23008 3.95703 4.11683V14.8835C3.95703 15.7702 3.95703 16.2137 4.12961 16.5523C4.2814 16.8502 4.52362 17.0925 4.82155 17.2442C5.16024 17.4168 5.60361 17.4168 6.49036 17.4168ZM9.89453 13.8543C9.89453 14.0729 9.71728 14.2502 9.4987 14.2502C9.28012 14.2502 9.10286 14.0729 9.10286 13.8543C9.10286 13.6357 9.28012 13.4585 9.4987 13.4585C9.71728 13.4585 9.89453 13.6357 9.89453 13.8543Z" stroke="#80BDFF" stroke-width="2" stroke-linecap="round" stroke-linejoin="round"/>
</svg>
