<svg width="70" height="70" viewBox="0 0 70 70" fill="none" xmlns="http://www.w3.org/2000/svg">
<circle cx="35" cy="35" r="35" fill="#F2EFEF"/>
<path d="M34.5 18C44.1651 18 52 25.8349 52 35.5C52 45.1633 44.1633 52.9965 34.5 52.9965C24.8349 52.9982 17 45.1633 17 35.5C17 25.8349 24.8349 18 34.5 18ZM34.5 20.6245C32.5331 20.6031 30.5814 20.9721 28.758 21.7101C26.9346 22.448 25.2757 23.5403 23.8773 24.9237C22.4788 26.307 21.3686 27.954 20.611 29.7693C19.8533 31.5845 19.4631 33.5321 19.4631 35.4991C19.4631 37.4662 19.8533 39.4137 20.611 41.229C21.3686 43.0443 22.4788 44.6912 23.8773 46.0746C25.2757 47.4579 26.9346 48.5502 28.758 49.2882C30.5814 50.0261 32.5331 50.3951 34.5 50.3738C38.4171 50.3313 42.1593 48.7454 44.9141 45.9605C47.669 43.1756 49.2142 39.4164 49.2142 35.4991C49.2142 31.5818 47.669 27.8227 44.9141 25.0377C42.1593 22.2528 38.4171 20.667 34.5 20.6245ZM28.3097 40.3693C29.0462 41.3067 29.9862 42.0643 31.0586 42.5848C32.1311 43.1052 33.3079 43.3749 34.5 43.3734C35.6908 43.3749 36.8663 43.1057 37.9378 42.5862C39.0093 42.0666 39.9487 41.3104 40.685 40.3745C40.7919 40.2393 40.9243 40.1265 41.0747 40.0424C41.2252 39.9584 41.3907 39.9048 41.5619 39.8847C41.733 39.8647 41.9065 39.8785 42.0723 39.9255C42.2381 39.9724 42.393 40.0516 42.5283 40.1584C42.6635 40.2653 42.7763 40.3977 42.8604 40.5482C42.9444 40.6986 42.998 40.8642 43.0181 41.0353C43.0381 41.2065 43.0243 41.3799 42.9773 41.5457C42.9304 41.7115 42.8512 41.8665 42.7443 42.0017C41.7624 43.2486 40.5101 44.2561 39.082 44.9484C37.6538 45.6406 36.0871 45.9995 34.5 45.9979C32.9106 45.9995 31.3416 45.6396 29.9118 44.9454C28.482 44.2513 27.2288 43.2411 26.2469 41.9912C26.1403 41.8558 26.0614 41.7006 26.0147 41.5347C25.9681 41.3688 25.9545 41.1953 25.9749 41.0241C25.9953 40.8529 26.0492 40.6875 26.1336 40.5371C26.2179 40.3868 26.331 40.2546 26.4665 40.1479C26.6019 40.0413 26.757 39.9624 26.923 39.9158C27.0889 39.8691 27.2624 39.8556 27.4336 39.876C27.6047 39.8964 27.7702 39.9503 27.9205 40.0346C28.0709 40.119 28.2031 40.2321 28.3097 40.3675V40.3693ZM29.251 29.8136C29.5433 29.8054 29.8343 29.8558 30.1068 29.9619C30.3793 30.0681 30.6277 30.2278 30.8374 30.4316C31.047 30.6354 31.2137 30.8792 31.3275 31.1486C31.4413 31.418 31.5 31.7074 31.5 31.9998C31.5 32.2922 31.4413 32.5817 31.3275 32.851C31.2137 33.1204 31.047 33.3642 30.8374 33.568C30.6277 33.7719 30.3793 33.9316 30.1068 34.0377C29.8343 34.1439 29.5433 34.1943 29.251 34.186C28.6819 34.1699 28.1415 33.9325 27.7447 33.5243C27.3479 33.1161 27.1258 32.5692 27.1258 31.9998C27.1258 31.4305 27.3479 30.8836 27.7447 30.4754C28.1415 30.0671 28.6819 29.8297 29.251 29.8136ZM39.7489 29.8136C40.0412 29.8054 40.3322 29.8558 40.6047 29.9619C40.8772 30.0681 41.1256 30.2278 41.3353 30.4316C41.5449 30.6354 41.7116 30.8792 41.8254 31.1486C41.9392 31.418 41.9979 31.7074 41.9979 31.9998C41.9979 32.2922 41.9392 32.5817 41.8254 32.851C41.7116 33.1204 41.5449 33.3642 41.3353 33.568C41.1256 33.7719 40.8772 33.9316 40.6047 34.0377C40.3322 34.1439 40.0412 34.1943 39.7489 34.186C39.1798 34.1699 38.6394 33.9325 38.2426 33.5243C37.8458 33.1161 37.6237 32.5692 37.6237 31.9998C37.6237 31.4305 37.8458 30.8836 38.2426 30.4754C38.6394 30.0671 39.1798 29.8297 39.7489 29.8136Z" fill="#131313"/>
</svg>
