<svg width="26" height="26" viewBox="0 0 26 26" fill="none" xmlns="http://www.w3.org/2000/svg">
<g clip-path="url(#clip0_1651_10619)">
<path d="M19.8476 22.1165L19.9485 16.1173M16.8985 19.0664L22.8976 19.1674M12.9495 15.9996L8.95009 15.9323C7.08658 15.9009 6.15483 15.8852 5.41474 16.1773C4.42792 16.5668 3.63624 17.3323 3.21383 18.3054C2.89703 19.0353 2.88135 19.9669 2.84999 21.8305M16.646 4.35086C18.1017 4.96883 19.1115 6.42318 19.0833 8.10163C19.055 9.78009 17.9969 11.1997 16.5212 11.7682M14.5839 8.02592C14.5467 10.2348 12.726 11.9952 10.5172 11.9581C8.30835 11.9209 6.54787 10.1002 6.58504 7.89133C6.62221 5.6825 8.44294 3.92202 10.6518 3.95919C12.8606 3.99636 14.6211 5.8171 14.5839 8.02592Z" stroke="#A05E49" stroke-width="2" stroke-linecap="round" stroke-linejoin="round"/>
</g>
<defs>
<clipPath id="clip0_1651_10619">
<rect width="24" height="24" fill="white" transform="translate(1.20361 0.799805) rotate(0.964017)"/>
</clipPath>
</defs>
</svg>
