<svg width="24" height="24" viewBox="0 0 24 24" fill="none" xmlns="http://www.w3.org/2000/svg">
<path d="M16.36 13.9997C16.44 13.3397 16.5 12.6798 16.5 11.9998C16.5 11.3198 16.44 10.6598 16.36 9.99982H19.74C19.9 10.6398 20 11.3098 20 11.9998C20 12.6898 19.9 13.3597 19.74 13.9997M14.59 19.5596C15.19 18.4496 15.65 17.2497 15.97 15.9997H18.92C17.9512 17.6679 16.4141 18.9316 14.59 19.5596ZM14.34 13.9997H9.66C9.56 13.3397 9.5 12.6798 9.5 11.9998C9.5 11.3198 9.56 10.6498 9.66 9.99982H14.34C14.43 10.6498 14.5 11.3198 14.5 11.9998C14.5 12.6798 14.43 13.3397 14.34 13.9997ZM12 19.9596C11.17 18.7596 10.5 17.4297 10.09 15.9997H13.91C13.5 17.4297 12.83 18.7596 12 19.9596ZM8 7.99987H5.08C6.03886 6.32712 7.57479 5.06142 9.4 4.43995C8.8 5.54992 8.35 6.74989 8 7.99987ZM5.08 15.9997H8C8.35 17.2497 8.8 18.4496 9.4 19.5596C7.57862 18.9313 6.04485 17.6674 5.08 15.9997ZM4.26 13.9997C4.1 13.3597 4 12.6898 4 11.9998C4 11.3098 4.1 10.6398 4.26 9.99982H7.64C7.56 10.6598 7.5 11.3198 7.5 11.9998C7.5 12.6798 7.56 13.3397 7.64 13.9997M12 4.02996C12.83 5.22993 13.5 6.5699 13.91 7.99987H10.09C10.5 6.5699 11.17 5.22993 12 4.02996ZM18.92 7.99987H15.97C15.657 6.76135 15.1936 5.56582 14.59 4.43995C16.43 5.06993 17.96 6.3399 18.92 7.99987ZM12 2C6.47 2 2 6.4999 2 11.9998C2 14.6519 3.05357 17.1954 4.92893 19.0707C5.85752 19.9993 6.95991 20.7358 8.17316 21.2384C9.38642 21.7409 10.6868 21.9996 12 21.9996C14.6522 21.9996 17.1957 20.946 19.0711 19.0707C20.9464 17.1954 22 14.6519 22 11.9998C22 10.6866 21.7413 9.38626 21.2388 8.17303C20.7362 6.9598 19.9997 5.85743 19.0711 4.92887C18.1425 4.0003 17.0401 3.26372 15.8268 2.76119C14.6136 2.25865 13.3132 2 12 2Z" fill="#A6A5A5"/>
</svg>
