<svg width="20" height="18" viewBox="0 0 20 18" fill="none" xmlns="http://www.w3.org/2000/svg">
<path d="M16.4154 3.49993H13.6654V2.58329C13.6654 1.57498 12.8404 0.75 11.832 0.75H8.16536C7.15703 0.75 6.33203 1.57498 6.33203 2.58329V3.49993H3.58203C2.0237 3.49993 0.832031 4.69157 0.832031 6.24987V14.4997C0.832031 16.058 2.0237 17.2496 3.58203 17.2496H16.4154C17.9737 17.2496 19.1654 16.058 19.1654 14.4997V6.24987C19.1654 4.69157 17.9737 3.49993 16.4154 3.49993ZM8.16536 2.58329H11.832V3.49993H8.16536V2.58329ZM17.332 14.4997C17.332 15.0497 16.9654 15.4163 16.4154 15.4163H3.58203C3.03203 15.4163 2.66536 15.0497 2.66536 14.4997V9.36646L6.9737 10.8331H12.7487C12.8404 10.8331 12.932 10.8331 13.0237 10.7414L17.332 9.2748V14.4997Z" fill="#A6A5A5"/>
</svg>
